<svg width="19" height="21" viewBox="0 0 19 21" fill="none" xmlns="http://www.w3.org/2000/svg">
<path d="M9.09091 20.3C4.03909 19.1773 0 14.411 0 9.39096V3.93641L9.09091 0.300049L18.1818 3.93641V9.39096C18.1818 14.4128 14.1427 19.1773 9.09091 20.3ZM1.81818 4.8455V9.39096C1.87013 11.4929 2.60942 13.5199 3.92289 15.1617C5.23636 16.8036 7.05164 17.9698 9.09091 18.4819C11.1302 17.9698 12.9455 16.8036 14.2589 15.1617C15.5724 13.5199 16.3117 11.4929 16.3636 9.39096V4.8455L9.09091 2.11823L1.81818 4.8455Z" fill="#222529"/>
<path d="M9.0909 9.39091C10.3461 9.39091 11.3636 8.37338 11.3636 7.11819C11.3636 5.86299 10.3461 4.84546 9.0909 4.84546C7.83571 4.84546 6.81818 5.86299 6.81818 7.11819C6.81818 8.37338 7.83571 9.39091 9.0909 9.39091Z" fill="#222529"/>
<path d="M4.54547 13.0273C4.99355 13.8439 5.65056 14.5267 6.44923 15.0059C7.24791 15.4851 8.15958 15.7435 9.09093 15.7546C10.0223 15.7435 10.9339 15.4851 11.7326 15.0059C12.5313 14.5267 13.1883 13.8439 13.6364 13.0273C13.6137 11.3037 10.5982 10.3 9.09093 10.3C7.57547 10.3 4.5682 11.3037 4.54547 13.0273Z" fill="#222529"/>
</svg>
