<svg width="15" height="13" viewBox="0 0 15 13" fill="none" xmlns="http://www.w3.org/2000/svg">
<path d="M1.30098 5.8501H14.2993C14.4717 5.8501 14.637 5.91857 14.7589 6.04045C14.8808 6.16234 14.9493 6.32765 14.9493 6.50002C14.9493 6.67238 14.8808 6.83769 14.7589 6.95958C14.637 7.08146 14.4717 7.14993 14.2993 7.14993H1.30098C1.12861 7.14993 0.963302 7.08146 0.841419 6.95958C0.719535 6.83769 0.651062 6.67238 0.651062 6.50002C0.651062 6.32765 0.719535 6.16234 0.841419 6.04045C0.963302 5.91857 1.12861 5.8501 1.30098 5.8501Z" fill="#DC3545"/>
<path d="M1.57006 6.5L6.96048 11.8891C7.08252 12.0112 7.15108 12.1767 7.15108 12.3493C7.15108 12.5218 7.08252 12.6874 6.96048 12.8094C6.83845 12.9314 6.67293 13 6.50034 13C6.32775 13 6.16224 12.9314 6.0402 12.8094L0.190938 6.96014C0.130413 6.89977 0.0823937 6.82805 0.0496294 6.74909C0.0168652 6.67013 0 6.58549 0 6.5C0 6.41451 0.0168652 6.32987 0.0496294 6.25091C0.0823937 6.17195 0.130413 6.10023 0.190938 6.03986L6.0402 0.190597C6.16224 0.0685596 6.32775 0 6.50034 0C6.67293 0 6.83845 0.0685596 6.96048 0.190597C7.08252 0.312634 7.15108 0.478152 7.15108 0.650739C7.15108 0.823326 7.08252 0.988844 6.96048 1.11088L1.57006 6.5Z" fill="#DC3545"/>
</svg>
