<svg width="18" height="20" viewBox="0 0 18 20" fill="none" xmlns="http://www.w3.org/2000/svg">
<path d="M9 10C11.8406 10 14.1429 7.76172 14.1429 5C14.1429 2.23828 11.8406 0 9 0C6.15938 0 3.85714 2.23828 3.85714 5C3.85714 7.76172 6.15938 10 9 10ZM5.14286 12.1563C2.16964 13.0039 0 15.6758 0 18.8398C0 19.4805 0.534375 20 1.1933 20H16.8067C17.4656 20 18 19.4805 18 18.8398C18 15.6758 15.8304 13.0039 12.8571 12.1563V14.1406C13.9661 14.418 14.7857 15.3984 14.7857 16.5625V18.125C14.7857 18.4688 14.4964 18.75 14.1429 18.75H13.5C13.1464 18.75 12.8571 18.4688 12.8571 18.125C12.8571 17.7813 13.1464 17.5 13.5 17.5V16.5625C13.5 15.8711 12.9254 15.3125 12.2143 15.3125C11.5031 15.3125 10.9286 15.8711 10.9286 16.5625V17.5C11.2821 17.5 11.5714 17.7813 11.5714 18.125C11.5714 18.4688 11.2821 18.75 10.9286 18.75H10.2857C9.93214 18.75 9.64286 18.4688 9.64286 18.125V16.5625C9.64286 15.3984 10.4625 14.418 11.5714 14.1406V11.9102C11.3304 11.8867 11.0853 11.875 10.8362 11.875H7.16384C6.91473 11.875 6.66964 11.8867 6.42857 11.9102V14.4648C7.3567 14.7344 8.03571 15.5703 8.03571 16.5625C8.03571 17.7695 7.02723 18.75 5.78571 18.75C4.5442 18.75 3.53571 17.7695 3.53571 16.5625C3.53571 15.5703 4.21473 14.7344 5.14286 14.4648V12.1563V12.1563ZM5.78571 17.5C6.32009 17.5 6.75 17.082 6.75 16.5625C6.75 16.043 6.32009 15.625 5.78571 15.625C5.25134 15.625 4.82143 16.043 4.82143 16.5625C4.82143 17.082 5.25134 17.5 5.78571 17.5Z" fill="#222529"/>
</svg>
