<svg width="11" height="14" viewBox="0 0 11 14" fill="none" xmlns="http://www.w3.org/2000/svg">
<path d="M0.785509 12.4444H10.2145C10.4136 12.4445 10.6052 12.5194 10.7507 12.6539C10.8961 12.7884 10.9846 12.9726 10.9982 13.1692C11.0117 13.3658 10.9494 13.5602 10.8238 13.7131C10.6981 13.8659 10.5186 13.9659 10.3214 13.9927L10.2145 14H0.785509C0.586428 13.9999 0.394792 13.9251 0.249323 13.7905C0.103854 13.656 0.0153979 13.4718 0.00182858 13.2752C-0.0117408 13.0786 0.0505881 12.8843 0.176221 12.7314C0.301854 12.5785 0.481424 12.4786 0.678647 12.4517L0.785509 12.4444H10.2145H0.785509ZM5.39314 0.00725923L5.5 0C5.68988 7.92597e-06 5.87333 0.068074 6.01643 0.19161C6.15953 0.315147 6.25259 0.485796 6.27842 0.672L6.28575 0.777778V8.75052L8.64823 6.41304C8.78147 6.2812 8.95812 6.20113 9.146 6.18743C9.33388 6.17372 9.52048 6.22729 9.6718 6.33837L9.75981 6.41304C9.89299 6.54492 9.97388 6.71978 9.98773 6.90575C10.0016 7.09173 9.94746 7.27644 9.83524 7.42622L9.75981 7.51333L6.05526 11.1793C5.92222 11.311 5.74584 11.3911 5.5582 11.405C5.37055 11.4189 5.1841 11.3656 5.03274 11.255L4.94474 11.1793L1.2402 7.51333C1.09961 7.37455 1.01731 7.18823 1.00985 6.99183C1.00239 6.79544 1.07032 6.60352 1.19998 6.45468C1.32964 6.30584 1.51142 6.21111 1.70877 6.18953C1.90612 6.16795 2.10441 6.22113 2.26376 6.33837L2.35177 6.41304L4.71425 8.75259V0.777778C4.71426 0.589828 4.78302 0.408238 4.90783 0.26659C5.03263 0.124943 5.20503 0.0328204 5.39314 0.00725923L5.5 0L5.39314 0.00725923Z" fill="#0D6EFD"/>
</svg>
