<svg width="16" height="16" viewBox="0 0 16 16" fill="none" xmlns="http://www.w3.org/2000/svg">
<path d="M8 3.5C7.21778 3.50099 6.46789 3.81217 5.91478 4.36528C5.36167 4.91839 5.05049 5.66828 5.0495 6.4505H6.5495C6.5495 5.65025 7.2005 5 8 5C8.7995 5 9.4505 5.65025 9.4505 6.4505C9.4505 6.899 9.08975 7.2245 8.5385 7.67C8.35842 7.81107 8.18545 7.96101 8.02025 8.11925C7.27175 8.867 7.25 9.66125 7.25 9.74975V10.25H8.75L8.74925 9.77525C8.75 9.76325 8.774 9.48575 9.08 9.1805C9.1925 9.068 9.33425 8.9555 9.48125 8.837C10.0655 8.36375 10.9497 7.649 10.9497 6.4505C10.9492 5.66829 10.6382 4.91828 10.0852 4.3651C9.53214 3.81193 8.78221 3.50079 8 3.5ZM7.25 11H8.75V12.5H7.25V11Z" fill="white"/>
<path d="M8 0.5C3.8645 0.5 0.5 3.8645 0.5 8C0.5 12.1355 3.8645 15.5 8 15.5C12.1355 15.5 15.5 12.1355 15.5 8C15.5 3.8645 12.1355 0.5 8 0.5ZM8 14C4.69175 14 2 11.3082 2 8C2 4.69175 4.69175 2 8 2C11.3082 2 14 4.69175 14 8C14 11.3082 11.3082 14 8 14Z" fill="white"/>
</svg>
