<svg width="13" height="16" viewBox="0 0 13 16" fill="none" xmlns="http://www.w3.org/2000/svg">
<path d="M7.78863 0C8.17013 9.17849e-05 8.53945 0.132347 8.83187 0.3736L8.9375 0.4688L12.5239 4C12.7936 4.26562 12.9599 4.61622 12.9935 4.9904L13 5.1312V14.4C13.0001 14.8037 12.8453 15.1925 12.5665 15.4884C12.2878 15.7844 11.9057 15.9657 11.4969 15.996L11.375 16H1.625C1.21503 16.0001 0.820165 15.8477 0.519555 15.5732C0.218945 15.2987 0.0348103 14.9225 0.00406267 14.52L8.14678e-08 14.4V1.6C-0.000129658 1.19634 0.154705 0.807547 0.433466 0.511562C0.712227 0.215576 1.09431 0.0342747 1.50313 0.00400009L1.625 0H7.78863ZM6.5 1.6H1.625V14.4H11.375V6.4H7.71875C7.39552 6.4 7.08552 6.27357 6.85696 6.04853C6.6284 5.82348 6.5 5.51826 6.5 5.2V1.6ZM6.5 7.6C6.71549 7.6 6.92215 7.68429 7.07452 7.83431C7.2269 7.98434 7.3125 8.18783 7.3125 8.4V9.6H8.53125C8.74674 9.6 8.9534 9.68429 9.10577 9.83431C9.25815 9.98434 9.34375 10.1878 9.34375 10.4C9.34375 10.6122 9.25815 10.8157 9.10577 10.9657C8.9534 11.1157 8.74674 11.2 8.53125 11.2H7.3125V12.4C7.3125 12.6122 7.2269 12.8157 7.07452 12.9657C6.92215 13.1157 6.71549 13.2 6.5 13.2C6.28451 13.2 6.07785 13.1157 5.92548 12.9657C5.7731 12.8157 5.6875 12.6122 5.6875 12.4V11.2H4.46875C4.25326 11.2 4.0466 11.1157 3.89423 10.9657C3.74185 10.8157 3.65625 10.6122 3.65625 10.4C3.65625 10.1878 3.74185 9.98434 3.89423 9.83431C4.0466 9.68429 4.25326 9.6 4.46875 9.6H5.6875V8.4C5.6875 8.18783 5.7731 7.98434 5.92548 7.83431C6.07785 7.68429 6.28451 7.6 6.5 7.6V7.6ZM8.125 1.9312V4.8H11.0386L8.125 1.9312Z" fill="white"/>
</svg>
