<svg width="15" height="13" viewBox="0 0 15 13" fill="none" xmlns="http://www.w3.org/2000/svg">
<path d="M13.6483 7.1499L0.649942 7.1499C0.477573 7.1499 0.312263 7.08143 0.19038 6.95955C0.0684967 6.83766 2.39193e-05 6.67235 2.39042e-05 6.49999C2.38892e-05 6.32762 0.0684967 6.16231 0.19038 6.04042C0.312263 5.91854 0.477573 5.85007 0.649942 5.85007L13.6483 5.85007C13.8207 5.85007 13.986 5.91854 14.1079 6.04042C14.2297 6.16231 14.2982 6.32762 14.2982 6.49998C14.2982 6.67235 14.2297 6.83766 14.1079 6.95955C13.986 7.08143 13.8207 7.1499 13.6483 7.1499Z" fill="white"/>
<path d="M13.3792 6.5L7.9888 1.11088C7.86676 0.988844 7.7982 0.823325 7.7982 0.650739C7.7982 0.478152 7.86676 0.312634 7.9888 0.190597C8.11083 0.0685595 8.27635 1.22971e-07 8.44894 1.07883e-07C8.62152 9.27954e-08 8.78704 0.0685594 8.90908 0.190597L14.7583 6.03986C14.8189 6.10023 14.8669 6.17195 14.8996 6.25091C14.9324 6.32987 14.9493 6.41451 14.9493 6.5C14.9493 6.58549 14.9324 6.67013 14.8996 6.74909C14.8669 6.82805 14.8189 6.89977 14.7583 6.96014L8.90908 12.8094C8.78704 12.9314 8.62153 13 8.44894 13C8.27635 13 8.11083 12.9314 7.9888 12.8094C7.86676 12.6874 7.7982 12.5218 7.7982 12.3493C7.7982 12.1767 7.86676 12.0112 7.9888 11.8891L13.3792 6.5Z" fill="white"/>
</svg>
