<svg width="16" height="16" viewBox="0 0 16 16" fill="none" xmlns="http://www.w3.org/2000/svg">
<g clip-path="url(#clip0_741_293)">
<path d="M3.2 1.6C3.2 1.17565 3.36857 0.768687 3.66863 0.468629C3.96869 0.168571 4.37565 0 4.8 0L11.2 0C11.6243 0 12.0313 0.168571 12.3314 0.468629C12.6314 0.768687 12.8 1.17565 12.8 1.6V5.33333H3.2V1.6ZM1.6 6.4C1.17565 6.4 0.768687 6.56857 0.468629 6.86863C0.168571 7.16869 0 7.57565 0 8L0 12.2667C0 12.691 0.168571 13.098 0.468629 13.398C0.768687 13.6981 1.17565 13.8667 1.6 13.8667H2.13333V9.6H13.8667V13.8667H14.4C14.8243 13.8667 15.2313 13.6981 15.5314 13.398C15.8314 13.098 16 12.691 16 12.2667V8C16 7.57565 15.8314 7.16869 15.5314 6.86863C15.2313 6.56857 14.8243 6.4 14.4 6.4H1.6Z" fill="white"/>
<path d="M3.20001 10.6666H12.8V16H3.20001V10.6666Z" fill="white"/>
</g>
<defs>
<clipPath id="clip0_741_293">
<rect width="16" height="16" fill="white"/>
</clipPath>
</defs>
</svg>
