<svg width="18" height="20" viewBox="0 0 18 20" fill="none" xmlns="http://www.w3.org/2000/svg">
<path d="M9.81871 0.964595L12.9482 6.39557C13.0756 6.61704 13.11 6.8801 13.0439 7.12699C12.9779 7.37387 12.8167 7.58439 12.5958 7.71231L11.344 8.4358L12.3079 10.1066L10.6401 11.0712L9.67716 9.39948L8.42632 10.1239C8.20516 10.2518 7.94234 10.2865 7.69566 10.2203C7.44899 10.1541 7.23867 9.99242 7.11098 9.77087L5.34113 6.70136C4.70966 6.89361 4.12436 7.21381 3.62157 7.64211C3.11877 8.0704 2.70921 8.59765 2.41828 9.19112C2.12736 9.78459 1.96129 10.4316 1.93038 11.0921C1.89948 11.7525 2.00438 12.4123 2.2386 13.0304C3.00885 12.5402 3.90282 12.2805 4.81538 12.2818C6.43693 12.2818 7.87168 13.0854 8.74409 14.3163L16.147 10.0342L17.1099 11.705L9.52405 16.0932C9.66238 16.7444 9.66566 17.4172 9.53368 18.0697H17.3333V19.999L0.963696 20C0.337141 19.1655 -0.00089845 18.1493 0.000776195 17.1051C0.000776195 16.1337 0.287726 15.2289 0.780741 14.4716C0.334047 13.6246 0.0723386 12.6921 0.0129948 11.7359C-0.046349 10.7798 0.0980297 9.82199 0.436543 8.92606C0.775057 8.03013 1.29996 7.2166 1.9764 6.53948C2.65283 5.86237 3.46532 5.33717 4.35991 4.99875L3.98149 4.34086C3.72612 3.89775 3.65691 3.37115 3.7891 2.87692C3.92128 2.38268 4.24403 1.96129 4.68634 1.70545L7.18801 0.258473C7.63033 0.00264348 8.15599 -0.066685 8.64933 0.0657377C9.14268 0.198161 9.56332 0.521488 9.81871 0.964595V0.964595ZM4.81538 14.2111C4.3531 14.2109 3.89752 14.3218 3.4869 14.5345C3.07629 14.7473 2.72263 15.0556 2.45564 15.4337C2.18864 15.8117 2.01611 16.2484 1.95255 16.7071C1.88898 17.1658 1.93622 17.6331 2.09031 18.0697H7.54044C7.69453 17.6331 7.74177 17.1658 7.67821 16.7071C7.61464 16.2484 7.44211 15.8117 7.17511 15.4337C6.90812 15.0556 6.55446 14.7473 6.14385 14.5345C5.73323 14.3218 5.27765 14.2109 4.81538 14.2111V14.2111ZM8.15093 1.92924L5.64926 3.37622L8.29729 7.97084L10.799 6.52386L8.15093 1.92924V1.92924Z" fill="#222529"/>
</svg>
