<svg width="15" height="15" viewBox="0 0 15 15" fill="none" xmlns="http://www.w3.org/2000/svg">
<path d="M14.8187 3.30626L11.6937 0.18126C11.6353 0.123334 11.5661 0.0775062 11.4899 0.0464034C11.4138 0.0153005 11.3322 -0.000465111 11.25 1.04464e-05H1.25C0.918479 1.04464e-05 0.600537 0.131706 0.366116 0.366127C0.131696 0.600547 0 0.918489 0 1.25001V13.75C0 14.0815 0.131696 14.3995 0.366116 14.6339C0.600537 14.8683 0.918479 15 1.25 15H13.75C14.0815 15 14.3995 14.8683 14.6339 14.6339C14.8683 14.3995 15 14.0815 15 13.75V3.75001C15.0005 3.66775 14.9847 3.58621 14.9536 3.51007C14.9225 3.43392 14.8767 3.36466 14.8187 3.30626ZM5 1.25001H9.99999V3.75001H5V1.25001ZM9.99999 13.75H5V8.75H9.99999V13.75ZM11.25 13.75V8.75C11.25 8.41848 11.1183 8.10054 10.8839 7.86612C10.6495 7.6317 10.3315 7.50001 9.99999 7.50001H5C4.66848 7.50001 4.35053 7.6317 4.11611 7.86612C3.88169 8.10054 3.75 8.41848 3.75 8.75V13.75H1.25V1.25001H3.75V3.75001C3.75 4.08153 3.88169 4.39947 4.11611 4.63389C4.35053 4.86831 4.66848 5.00001 5 5.00001H9.99999C10.3315 5.00001 10.6495 4.86831 10.8839 4.63389C11.1183 4.39947 11.25 4.08153 11.25 3.75001V1.50626L13.75 4.00626V13.75H11.25Z" fill="white"/>
</svg>
