<svg width="20" height="14" viewBox="0 0 20 14" fill="none" xmlns="http://www.w3.org/2000/svg">
<path d="M19.9617 6.78364C19.2132 4.84759 17.9138 3.1733 16.2242 1.96769C14.5345 0.762081 12.5286 0.078001 10.4544 0C8.38018 0.078001 6.37428 0.762081 4.68461 1.96769C2.99495 3.1733 1.69559 4.84759 0.947121 6.78364C0.896573 6.92345 0.896573 7.07655 0.947121 7.21636C1.69559 9.15241 2.99495 10.8267 4.68461 12.0323C6.37428 13.2379 8.38018 13.922 10.4544 14C12.5286 13.922 14.5345 13.2379 16.2242 12.0323C17.9138 10.8267 19.2132 9.15241 19.9617 7.21636C20.0122 7.07655 20.0122 6.92345 19.9617 6.78364V6.78364ZM10.4544 12.7273C7.08167 12.7273 3.51803 10.2264 2.22621 7C3.51803 3.77364 7.08167 1.27273 10.4544 1.27273C13.8271 1.27273 17.3908 3.77364 18.6826 7C17.3908 10.2264 13.8271 12.7273 10.4544 12.7273Z" fill="white"/>
<path d="M10.4544 3.18176C9.69922 3.18176 8.96101 3.4057 8.33311 3.82524C7.70522 4.24479 7.21583 4.84111 6.92684 5.53879C6.63785 6.23647 6.56224 7.00418 6.70957 7.74483C6.85689 8.48549 7.22054 9.16582 7.75452 9.69981C8.2885 10.2338 8.96884 10.5974 9.70949 10.7448C10.4501 10.8921 11.2179 10.8165 11.9155 10.5275C12.6132 10.2385 13.2095 9.74911 13.6291 9.12121C14.0486 8.49332 14.2726 7.75511 14.2726 6.99994C14.2726 5.9873 13.8703 5.01613 13.1542 4.30008C12.4382 3.58403 11.467 3.18176 10.4544 3.18176ZM10.4544 9.5454C9.95094 9.5454 9.4588 9.39611 9.0402 9.11641C8.62161 8.83671 8.29535 8.43917 8.10269 7.97405C7.91003 7.50893 7.85962 6.99712 7.95784 6.50335C8.05606 6.00958 8.29849 5.55602 8.65447 5.20004C9.01046 4.84405 9.46402 4.60162 9.95779 4.5034C10.4516 4.40518 10.9634 4.45559 11.4285 4.64825C11.8936 4.84091 12.2912 5.16717 12.5709 5.58577C12.8505 6.00436 12.9998 6.4965 12.9998 6.99994C12.9998 7.67504 12.7317 8.32249 12.2543 8.79985C11.7769 9.27722 11.1295 9.5454 10.4544 9.5454Z" fill="white"/>
</svg>
